<?xml version="1.0" encoding="UTF-8" standalone="no"?>
<svg
   xmlns:dc="http://purl.org/dc/elements/1.1/"
   xmlns:cc="http://creativecommons.org/ns#"
   xmlns:rdf="http://www.w3.org/1999/02/22-rdf-syntax-ns#"
   xmlns:svg="http://www.w3.org/2000/svg"
   xmlns="http://www.w3.org/2000/svg"
   xmlns:sodipodi="http://sodipodi.sourceforge.net/DTD/sodipodi-0.dtd"
   xmlns:inkscape="http://www.inkscape.org/namespaces/inkscape"
   width="1631pt"
   height="613pt"
   viewBox="0 0 1631 613"
   version="1.1"
   id="svg2"
   inkscape:version="0.91 r13725"
   sodipodi:docname="logo.svg">
  <metadata
     id="metadata52">
    <rdf:RDF>
      <cc:Work
         rdf:about="">
        <dc:format>image/svg+xml</dc:format>
        <dc:type
           rdf:resource="http://purl.org/dc/dcmitype/StillImage" />
        <dc:title></dc:title>
      </cc:Work>
    </rdf:RDF>
  </metadata>
  <defs
     id="defs50" />
  <sodipodi:namedview
     pagecolor="#ffffff"
     bordercolor="#666666"
     borderopacity="1"
     objecttolerance="10"
     gridtolerance="10"
     guidetolerance="10"
     inkscape:pageopacity="0"
     inkscape:pageshadow="2"
     inkscape:window-width="1200"
     inkscape:window-height="1897"
     id="namedview48"
     showgrid="false"
     inkscape:zoom="0.39955218"
     inkscape:cx="905.06953"
     inkscape:cy="686.685"
     inkscape:window-x="3112"
     inkscape:window-y="-8"
     inkscape:window-maximized="1"
     inkscape:current-layer="svg2" />
  <path
     fill="#ffffff"
     d=" M 0.00 0.00 L 1631.00 0.00 L 1631.00 613.00 L 0.00 613.00 L 0.00 0.00 Z"
     id="path4"
     style="fill:#2c6aa0;fill-opacity:1" />
  <path
     fill="#357d05"
     d=" M 362.43 34.35 L 362.55 33.61 C 366.27 33.66 369.99 33.67 373.71 33.59 C 374.11 36.21 374.90 39.10 373.67 41.62 C 371.85 45.47 369.62 49.11 367.79 52.95 C 366.95 54.68 366.09 56.40 365.26 58.14 C 362.32 63.31 359.92 68.76 356.98 73.93 C 356.82 74.31 356.50 75.08 356.34 75.46 C 352.05 83.77 347.64 92.05 342.64 99.97 C 342.55 100.59 342.36 101.82 342.26 102.44 C 328.95 102.50 315.63 102.43 302.31 102.48 C 302.29 89.26 302.30 76.03 302.31 62.81 C 306.27 61.00 310.12 58.96 314.09 57.17 C 322.34 52.97 330.76 49.12 339.04 44.97 C 347.08 41.97 354.33 37.21 362.43 34.35 Z"
     id="path6" />
  <path
     fill="#ff752d"
     d=" M 284.53 108.45 C 324.59 111.06 363.56 127.07 394.35 152.77 C 430.58 182.79 454.55 227.03 459.97 273.76 C 460.87 284.09 462.18 294.50 460.85 304.86 C 458.50 345.84 441.80 385.84 414.48 416.46 C 388.02 446.61 351.65 467.65 312.56 476.36 C 312.74 512.91 312.55 549.46 312.66 586.01 C 312.75 589.59 311.15 593.07 308.67 595.60 C 303.57 601.71 292.89 601.13 288.05 594.99 C 285.23 591.71 284.52 587.20 284.47 583.03 C 284.52 523.32 284.45 463.62 284.51 403.92 C 294.11 402.50 303.47 399.95 312.60 396.71 C 312.66 409.11 312.64 421.51 312.60 433.91 C 347.31 423.89 378.16 400.63 396.75 369.58 C 411.55 345.61 418.33 317.06 417.19 289.00 C 416.69 283.68 416.05 278.37 415.32 273.08 C 410.58 243.43 395.87 215.60 374.45 194.61 C 357.17 177.74 335.70 165.29 312.57 158.36 C 312.66 171.31 312.67 184.26 312.58 197.20 C 303.47 194.06 294.19 191.12 284.56 190.14 C 284.42 162.91 284.48 135.68 284.53 108.45 Z"
     id="path8" />
  <path
     fill="#2b2b2b"
     d=" M 198.91 121.89 C 216.51 115.18 235.00 110.25 253.87 109.24 C 254.08 132.50 253.81 155.76 254.05 179.01 C 254.02 182.31 253.55 185.57 253.00 188.81 C 253.81 189.03 254.62 189.25 255.44 189.47 C 246.62 190.76 237.99 192.99 229.58 195.94 C 229.38 196.25 228.96 196.87 228.75 197.18 C 228.39 184.12 228.82 171.06 228.52 158.01 C 225.66 158.41 222.90 159.24 220.20 160.22 C 180.62 173.82 147.40 205.06 132.15 244.11 C 130.70 248.07 129.35 252.06 128.13 256.10 C 119.17 287.07 120.95 321.02 133.17 350.87 C 141.33 370.18 153.61 387.76 169.16 401.83 C 184.56 415.96 203.07 426.61 222.89 433.19 C 224.76 433.68 226.62 434.21 228.49 434.70 C 228.76 422.29 228.58 409.87 228.59 397.46 C 237.12 400.67 245.96 403.43 255.11 403.99 C 254.21 405.85 253.69 407.89 253.78 409.97 C 254.22 427.96 253.75 445.96 253.99 463.95 C 254.10 469.24 253.90 474.53 253.50 479.80 C 231.57 478.00 210.07 472.13 189.99 463.22 C 189.04 462.73 188.08 462.24 187.14 461.75 C 186.03 461.27 184.93 460.77 183.83 460.30 C 181.59 459.14 179.35 457.99 177.14 456.78 C 151.24 442.60 128.74 422.30 111.97 398.00 C 96.84 375.84 86.34 350.44 82.08 323.92 C 81.61 321.60 81.41 319.25 81.13 316.91 C 80.27 313.00 80.58 308.95 79.91 305.02 C 78.80 294.31 80.03 283.61 80.82 272.94 C 81.36 270.33 81.56 267.66 82.04 265.04 C 89.56 218.84 115.62 176.07 152.92 147.86 C 164.94 138.70 178.03 130.95 191.85 124.84 C 194.22 123.90 196.56 122.89 198.91 121.89 Z"
     id="path10"
     style="fill:#ffffff" />
  <path
     fill="#1c1c1c"
     d=" M 253.87 109.24 L 255.44 109.21 C 255.42 135.96 255.41 162.72 255.44 189.47 C 254.62 189.25 253.81 189.03 253.00 188.81 C 253.55 185.57 254.02 182.31 254.05 179.01 C 253.81 155.76 254.08 132.50 253.87 109.24 Z"
     id="path12"
     style="fill:#f2f2f2" />
  <path
     fill="#2b2b2b"
     d=" M 956.86 175.83 C 960.23 174.89 963.58 173.82 966.98 172.95 C 997.41 216.19 1028.08 259.26 1058.56 302.46 C 1060.83 305.64 1063.17 308.78 1065.22 312.12 C 1058.31 314.07 1051.45 316.18 1044.54 318.10 C 1042.82 318.50 1041.31 319.36 1039.96 320.45 C 1028.80 303.14 1016.54 286.53 1005.08 269.40 C 975.67 269.28 946.26 269.32 916.86 269.38 C 905.09 286.57 892.52 303.22 881.03 320.60 C 880.11 319.97 879.20 319.34 878.30 318.73 C 876.48 318.24 874.70 317.70 872.90 317.20 C 871.87 316.86 870.84 316.54 869.83 316.23 C 865.31 314.82 860.79 313.39 856.24 312.11 C 887.73 267.26 919.28 222.47 950.85 177.69 C 952.85 177.07 954.85 176.46 956.86 175.83 Z"
     id="path14"
     style="fill:#ffffff" />
  <path
     fill="#2b2b2b"
     d=" M 1163.09 176.19 C 1165.68 175.61 1168.33 175.36 1170.93 174.80 C 1183.56 173.70 1196.30 172.86 1208.95 174.25 C 1212.32 174.47 1215.70 174.53 1219.07 174.82 C 1232.21 176.37 1245.33 178.43 1258.15 181.82 C 1259.47 182.18 1260.83 182.50 1262.20 182.82 L 1262.79 183.16 C 1265.14 183.72 1267.46 184.37 1269.83 184.93 C 1269.78 185.28 1269.68 185.98 1269.63 186.33 C 1265.98 191.11 1262.14 195.75 1258.80 200.75 C 1256.87 200.70 1254.95 200.45 1253.09 200.01 C 1252.08 199.60 1251.08 199.20 1250.10 198.81 C 1226.45 191.99 1201.63 188.57 1177.06 191.08 C 1168.19 192.01 1159.47 194.11 1151.12 197.19 C 1149.03 198.03 1146.96 198.91 1144.91 199.78 C 1144.40 200.02 1143.38 200.49 1142.87 200.72 C 1132.01 206.25 1121.96 214.28 1116.29 225.27 C 1109.87 237.27 1110.06 252.49 1116.80 264.31 C 1123.71 276.69 1135.95 285.07 1148.87 290.26 C 1152.58 291.57 1156.31 292.84 1160.12 293.90 C 1161.44 294.23 1162.78 294.54 1164.14 294.85 C 1173.93 297.09 1183.98 297.95 1194.02 297.74 C 1200.65 297.61 1207.35 297.90 1213.93 296.83 C 1218.96 296.51 1223.95 295.78 1228.93 294.94 C 1231.99 294.41 1235.02 293.74 1238.08 293.18 C 1245.79 291.29 1253.52 289.39 1261.02 286.78 C 1261.69 286.68 1262.37 286.58 1263.08 286.48 C 1265.52 291.20 1268.15 295.82 1270.78 300.44 C 1271.05 301.18 1271.94 302.01 1271.26 302.81 C 1246.59 311.79 1220.15 314.68 1194.04 314.58 C 1171.75 314.88 1149.27 311.05 1128.71 302.29 C 1115.06 296.38 1102.00 288.02 1093.01 275.96 C 1086.02 266.90 1081.80 255.55 1082.20 244.04 C 1081.79 230.60 1088.05 217.82 1097.07 208.16 C 1110.30 193.89 1128.42 185.20 1146.86 179.77 C 1150.86 178.72 1154.90 177.81 1158.93 176.81 C 1160.30 176.60 1161.69 176.40 1163.09 176.19 Z"
     id="path16"
     style="fill:#ffffff" />
  <path
     fill="#2b2b2b"
     d=" M 560.45 175.57 C 583.62 175.58 606.78 175.52 629.95 175.60 C 638.72 176.05 647.50 176.93 656.11 178.77 C 670.30 182.21 685.84 189.24 691.26 203.91 C 693.27 210.80 693.22 218.45 690.20 225.05 C 686.81 233.56 679.06 239.30 671.14 243.30 C 666.58 245.24 661.88 246.82 657.13 248.19 C 655.76 248.48 654.40 248.78 653.06 249.12 C 651.37 249.44 649.69 249.76 648.04 250.17 C 646.00 250.41 643.95 250.61 641.92 250.86 C 624.26 252.92 606.42 252.02 588.66 252.26 C 588.70 272.44 588.66 292.62 588.69 312.80 C 579.27 312.76 569.85 312.80 560.43 312.77 C 560.47 267.04 560.43 221.30 560.45 175.57 Z"
     id="path18"
     style="fill:#ffffff" />
  <path
     fill="#2b2b2b"
     d=" M 723.44 312.77 C 723.50 267.07 723.39 221.38 723.50 175.68 C 764.53 175.72 805.56 175.64 846.59 175.72 C 843.53 181.23 839.77 186.31 836.24 191.52 C 807.96 191.53 779.67 191.52 751.39 191.53 C 751.44 206.47 751.42 221.41 751.40 236.35 C 779.11 236.37 806.82 236.33 834.54 236.37 C 834.50 241.47 834.47 246.58 834.56 251.68 C 833.03 251.74 831.51 251.78 830.00 251.83 C 827.01 251.79 824.01 251.77 821.03 251.77 C 815.02 251.78 809.02 251.76 803.02 251.78 C 794.35 251.85 785.67 251.59 777.00 251.93 C 769.29 251.59 761.58 251.87 753.87 251.76 C 753.25 251.92 752.00 252.24 751.38 252.40 C 751.47 267.39 751.37 282.39 751.43 297.38 C 781.03 297.37 810.63 297.36 840.24 297.39 C 842.86 302.53 845.65 307.59 848.24 312.75 C 823.83 312.87 799.41 312.67 775.00 312.86 C 757.81 312.68 740.62 312.85 723.44 312.77 Z"
     id="path20"
     style="fill:#ffffff" />
  <path
     fill="#2b2b2b"
     d=" M 1303.63 175.61 C 1312.94 175.60 1322.25 175.62 1331.57 175.60 C 1331.60 195.90 1331.59 216.19 1331.57 236.48 C 1371.25 236.49 1410.92 236.49 1450.60 236.48 C 1450.57 216.19 1450.57 195.90 1450.59 175.61 C 1460.18 175.61 1469.77 175.61 1479.37 175.61 C 1479.38 222.98 1479.41 270.34 1479.35 317.71 C 1469.76 315.55 1460.16 313.44 1450.58 311.27 C 1450.59 291.64 1450.56 272.01 1450.59 252.38 C 1410.92 252.38 1371.25 252.37 1331.58 252.38 C 1331.59 272.01 1331.59 291.64 1331.58 311.27 C 1324.43 312.97 1317.22 314.41 1310.11 316.24 C 1309.00 316.41 1307.92 316.57 1306.85 316.74 C 1306.05 316.99 1304.46 317.48 1303.66 317.73 C 1303.58 270.35 1303.63 222.98 1303.63 175.61 Z"
     id="path22"
     style="fill:#ffffff" />
  <path
     fill="#ffffff"
     d=" M 588.66 191.33 C 600.43 191.30 612.21 191.30 623.99 191.33 C 633.29 191.33 642.66 192.91 651.21 196.68 C 655.71 199.34 660.25 202.77 662.08 207.88 C 664.90 214.71 662.20 223.02 656.46 227.48 C 650.60 232.12 643.11 233.98 635.90 235.26 C 620.24 237.34 604.40 236.06 588.67 236.39 C 588.68 221.37 588.70 206.35 588.66 191.33 Z"
     id="path24"
     style="fill:#2c6aa0;fill-opacity:1" />
  <path
     fill="#ffffff"
     d=" M 960.44 206.11 C 960.52 205.86 960.68 205.37 960.76 205.13 C 971.62 221.27 982.80 237.19 993.76 253.27 C 971.78 253.28 949.79 253.30 927.81 253.26 C 938.38 237.34 949.42 221.72 960.44 206.11 Z"
     id="path26"
     style="fill:#2c6aa0;fill-opacity:1" />
  <path
     fill="#2b2b2b"
     d=" M 234.42 236.29 C 245.00 230.57 256.95 226.93 269.07 227.26 C 289.22 226.52 309.37 235.18 323.20 249.77 C 333.12 259.91 339.60 273.17 341.99 287.12 C 343.00 294.04 342.79 301.10 342.22 308.05 C 341.74 309.99 341.40 311.96 341.02 313.93 C 335.96 335.83 319.73 354.47 299.14 363.26 C 297.44 363.88 295.75 364.52 294.08 365.21 C 290.43 366.30 286.74 367.24 283.04 368.12 C 274.41 369.06 265.62 369.18 257.01 368.03 C 232.24 363.73 210.28 345.87 201.66 322.17 C 196.73 308.66 196.05 293.74 199.79 279.85 C 204.86 261.44 217.66 245.40 234.42 236.29 Z"
     id="path28"
     style="fill:#ffffff" />
  <path
     fill="#ffffff"
     d=" M 260.21 260.96 C 270.85 258.19 282.56 260.24 291.74 266.25 C 299.93 271.39 305.97 279.81 308.36 289.17 C 311.28 300.05 308.80 312.13 302.10 321.14 C 292.85 334.03 275.34 340.25 260.03 336.08 C 249.32 333.46 239.85 326.14 234.68 316.39 C 228.27 304.64 228.80 289.37 236.18 278.17 C 241.52 269.56 250.43 263.41 260.21 260.96 Z"
     id="path30"
     style="fill:#2c6aa0;fill-opacity:1" />
  <path
     fill="#2b2b2b"
     d=" M 560.48 349.42 C 583.26 349.46 606.06 349.25 628.83 349.52 C 627.67 351.16 626.35 352.68 625.07 354.23 C 607.11 354.25 589.15 354.24 571.20 354.24 C 571.23 363.29 571.14 372.35 571.25 381.41 C 589.08 381.39 606.90 381.39 624.73 381.41 C 624.67 383.04 624.62 384.68 624.57 386.32 C 606.78 386.28 588.99 386.31 571.20 386.30 C 571.20 398.04 571.19 409.78 571.20 421.53 C 567.62 421.59 564.04 421.58 560.47 421.56 C 560.49 397.51 560.46 373.46 560.48 349.42 Z"
     id="path32"
     style="fill:#ffffff" />
  <path
     fill="#2b2b2b"
     d=" M 696.54 348.22 C 700.04 348.62 703.52 349.17 707.02 349.60 C 707.31 363.77 706.86 377.95 707.24 392.12 C 707.82 402.12 716.21 409.55 725.06 412.88 C 726.32 413.33 727.58 413.77 728.84 414.24 C 744.33 418.34 760.89 418.00 776.21 413.32 C 785.66 409.86 795.70 402.85 796.54 391.93 C 796.83 377.86 796.56 363.78 796.67 349.70 C 800.24 349.16 803.81 348.57 807.41 348.25 C 807.38 373.12 807.43 398.00 807.39 422.88 C 804.01 422.34 800.65 421.73 797.28 421.17 C 797.27 417.08 797.29 412.99 797.24 408.90 C 790.54 414.96 781.78 418.00 773.13 420.06 C 753.53 424.21 732.26 423.65 713.80 415.31 C 705.02 410.72 696.92 402.57 696.57 392.12 C 696.48 377.49 696.55 362.85 696.54 348.22 Z"
     id="path34"
     style="fill:#ffffff" />
  <path
     fill="#2b2b2b"
     d=" M 879.20 349.40 C 916.40 349.46 953.61 349.29 990.81 349.49 C 989.65 351.42 988.30 353.27 986.25 354.32 C 954.91 374.92 923.85 395.94 892.41 416.39 C 926.45 416.68 960.49 416.41 994.53 416.53 C 993.55 418.20 992.59 419.88 991.62 421.56 C 952.38 421.51 913.14 421.73 873.91 421.45 C 875.18 419.88 876.37 418.18 878.10 417.08 C 909.86 396.20 941.52 375.19 973.26 354.29 C 940.77 354.17 908.28 354.29 875.79 354.23 C 876.92 352.61 878.06 351.01 879.20 349.40 Z"
     id="path36"
     style="fill:#ffffff" />
  <path
     fill="#2b2b2b"
     d=" M 1055.78 349.43 C 1092.84 349.36 1129.89 349.41 1166.94 349.41 C 1166.71 350.28 1166.50 351.17 1166.30 352.05 C 1133.91 373.48 1101.66 395.12 1069.17 416.38 C 1103.15 416.71 1137.14 416.36 1171.13 416.56 C 1170.19 418.23 1169.27 419.90 1168.32 421.55 C 1129.13 421.53 1089.93 421.71 1050.74 421.46 C 1053.17 417.57 1057.29 415.44 1061.01 413.01 C 1090.69 393.44 1120.30 373.76 1150.05 354.31 C 1117.59 354.12 1085.13 354.34 1052.67 354.20 C 1053.68 352.60 1054.74 351.02 1055.78 349.43 Z"
     id="path38"
     style="fill:#ffffff" />
  <path
     fill="#2b2b2b"
     d=" M 1241.74 349.49 C 1265.96 349.32 1290.19 349.39 1314.41 349.45 C 1312.52 351.30 1311.23 354.80 1308.06 354.25 C 1289.54 354.24 1271.02 354.24 1252.51 354.25 C 1252.52 363.75 1252.51 373.25 1252.51 382.76 C 1271.12 382.91 1289.75 382.44 1308.35 382.99 C 1308.31 384.52 1308.31 386.06 1308.31 387.60 C 1289.72 387.76 1271.14 387.63 1252.55 387.67 C 1252.46 397.28 1252.53 406.89 1252.51 416.50 C 1272.63 416.56 1292.75 416.41 1312.87 416.58 C 1313.83 418.24 1314.81 419.87 1315.83 421.52 C 1291.35 421.67 1266.87 421.50 1242.39 421.60 C 1242.16 420.10 1241.92 418.60 1241.71 417.11 C 1241.76 402.72 1241.72 388.33 1241.74 373.95 C 1241.78 370.29 1241.44 366.61 1242.14 363.00 C 1241.34 358.54 1241.86 353.99 1241.74 349.49 Z"
     id="path40"
     style="fill:#ffffff" />
  <path
     fill="#2b2b2b"
     d=" M 1390.41 349.41 C 1403.95 349.40 1417.50 349.37 1431.04 349.42 C 1440.25 349.76 1449.66 350.98 1458.12 354.84 C 1463.12 357.13 1467.74 361.55 1468.22 367.30 C 1468.65 372.01 1465.70 376.35 1461.87 378.81 C 1456.72 382.17 1450.77 384.39 1444.65 385.02 C 1444.56 385.40 1444.37 386.16 1444.27 386.53 C 1458.63 397.61 1472.59 409.19 1486.97 420.25 C 1484.15 421.31 1481.31 422.29 1478.52 423.36 C 1463.50 411.59 1448.58 399.66 1433.93 387.45 C 1423.05 387.06 1412.17 387.42 1401.29 387.26 C 1401.15 389.13 1400.97 391.01 1400.80 392.89 C 1400.80 402.45 1400.80 412.01 1400.80 421.58 C 1397.32 421.57 1393.85 421.57 1390.39 421.57 C 1390.41 397.51 1390.38 373.46 1390.41 349.41 Z"
     id="path42"
     style="fill:#ffffff" />
  <path
     fill="#ffffff"
     d=" M 1400.79 354.33 C 1413.52 354.38 1426.35 353.53 1439.00 355.42 C 1445.49 356.55 1452.74 358.75 1456.33 364.78 C 1457.08 368.07 1457.05 372.00 1454.45 374.50 C 1450.26 378.58 1444.35 380.18 1438.74 381.16 C 1426.34 382.93 1413.78 382.21 1401.30 382.41 C 1400.88 379.63 1400.70 376.82 1400.79 374.01 C 1400.82 372.00 1400.81 369.99 1400.80 367.99 C 1400.81 363.44 1400.79 358.88 1400.79 354.33 Z"
     id="path44"
     style="fill:#2c6aa0;fill-opacity:1" />
  <path
     fill="#1c1c1c"
     d=" M 253.78 409.97 C 253.69 407.89 254.21 405.85 255.11 403.99 C 255.85 429.22 255.20 454.50 255.44 479.75 C 254.95 479.76 253.98 479.79 253.50 479.80 C 253.90 474.53 254.10 469.24 253.99 463.95 C 253.75 445.96 254.22 427.96 253.78 409.97 Z"
     id="path46"
     style="fill:#f2f2f2" />
  <path
     style="opacity:0;fill:#2c6aa0;fill-opacity:1"
     d="m 702.16363,304.83329 0,-84.07804 58.19015,1.04696 c 46.80733,0.84216 60.35965,1.87674 69.28089,5.28888 30.3931,11.62455 42.48892,34.31207 30.07212,56.40478 -11.71213,20.83893 -32.83041,28.18054 -85.5876,29.75388 l -39.41913,1.17557 0,37.24301 0,37.243 -16.26821,0 -16.26822,0 0,-84.07804 z"
     id="path4154"
     inkscape:connector-curvature="0"
     transform="scale(0.8,0.8)" />
  <path
     style="opacity:0;fill:#2c6aa0;fill-opacity:1"
     d="m 702.16363,304.83329 0,-84.07804 58.19015,1.04696 c 46.80733,0.84216 60.35965,1.87674 69.28089,5.28888 30.3931,11.62455 42.48892,34.31207 30.07212,56.40478 -11.71213,20.83893 -32.83041,28.18054 -85.5876,29.75388 l -39.41913,1.17557 0,37.24301 0,37.243 -16.26821,0 -16.26822,0 0,-84.07804 z"
     id="path4156"
     inkscape:connector-curvature="0"
     transform="scale(0.8,0.8)" />
  <path
     style="opacity:0;fill:#2c6aa0;fill-opacity:1"
     d="m 324.24053,418.562 c -39.14943,-11.37026 -46.97633,-61.60435 -13.20406,-84.74548 18.75846,-12.8535 50.21246,-7.74982 63.92657,10.37265 6.6882,8.83809 12.65044,26.76742 10.82948,32.56583 -0.58666,1.86809 -1.74013,6.47308 -2.56326,10.23333 -1.79473,8.19869 -14.64964,23.40755 -23.69533,28.03432 -9.523,4.87091 -25.27099,6.45018 -35.2934,3.53935 z"
     id="path4158"
     inkscape:connector-curvature="0"
     transform="scale(0.8,0.8)" />
</svg>
