<?xml version="1.0" encoding="UTF-8" standalone="no"?>
<!-- Created with Inkscape (http://www.inkscape.org/) -->

<svg
   xmlns:dc="http://purl.org/dc/elements/1.1/"
   xmlns:cc="http://creativecommons.org/ns#"
   xmlns:rdf="http://www.w3.org/1999/02/22-rdf-syntax-ns#"
   xmlns:svg="http://www.w3.org/2000/svg"
   xmlns="http://www.w3.org/2000/svg"
   xmlns:sodipodi="http://sodipodi.sourceforge.net/DTD/sodipodi-0.dtd"
   xmlns:inkscape="http://www.inkscape.org/namespaces/inkscape"
   id="svg3336"
   version="1.1"
   inkscape:version="0.91 r13725"
   xml:space="preserve"
   width="495.08749"
   height="557.03748"
   viewBox="0 0 495.08749 557.03748"
   sodipodi:docname="Peach-Sad.svg"><metadata
     id="metadata3342"><rdf:RDF><cc:Work
         rdf:about=""><dc:format>image/svg+xml</dc:format><dc:type
           rdf:resource="http://purl.org/dc/dcmitype/StillImage" /><dc:title></dc:title></cc:Work></rdf:RDF></metadata><defs
     id="defs3340" /><sodipodi:namedview
     pagecolor="#ffffff"
     bordercolor="#666666"
     borderopacity="1"
     objecttolerance="10"
     gridtolerance="10"
     guidetolerance="10"
     inkscape:pageopacity="0"
     inkscape:pageshadow="2"
     inkscape:window-width="1920"
     inkscape:window-height="1017"
     id="namedview3338"
     showgrid="false"
     inkscape:zoom="1.5223392"
     inkscape:cx="247.54375"
     inkscape:cy="278.51874"
     inkscape:window-x="-8"
     inkscape:window-y="-8"
     inkscape:window-maximized="1"
     inkscape:current-layer="g3344" /><g
     id="g3344"
     inkscape:groupmode="layer"
     inkscape:label="ink_ext_XXXXXX"
     transform="matrix(1.25,0,0,-1.25,0,557.0375)"><g
       id="g3346"
       transform="scale(0.1,0.1)"><path
         d="m 3848.43,415.703 -3.36,-8.203 c -5.43,-13.359 -55.66,-129.961 -150.6,-115.898 -29.06,4.257 -52.27,18.632 -67.13,41.484 -22.4,34.414 -24.39,85.605 -5.9,152.129 10.61,38.144 59.55,135.82 117.83,151.074 21.72,5.723 43.21,0.02 58.71,-15.644 38.07,-38.184 47.62,-149.844 49.97,-196.055 l 0.48,-8.887"
         style="fill:#000000;fill-opacity:1;fill-rule:nonzero;stroke:none"
         id="path3348"
         inkscape:connector-curvature="0" /><path
         d="m 3808.02,422.539 c 0,0 -41.13,-101.23 -107.73,-91.406 -66.56,9.844 -54.26,93.086 -40.31,143.359 13.96,50.274 78.3,149.395 109.66,117.969 31.35,-31.504 38.38,-169.922 38.38,-169.922"
         style="fill:#f4694d;fill-opacity:1;fill-rule:nonzero;stroke:none"
         id="path3350"
         inkscape:connector-curvature="0" /><path
         d="m 3934.8,334.395 c -21.76,-30.293 -55.19,-47.422 -96.62,-49.551 l 0,0 c -81.89,-4.141 -116.66,94.765 -121.88,182.246 -5.66,37.91 -24.59,84.238 -41.52,89.609 -11.09,3.535 -20.78,4.434 -28.81,4.004 -11.07,-0.586 -17.48,-3.086 -21.34,-4.922 -42.49,-69.492 -106.59,-101.66 -167.15,-104.726 -19.61,-0.996 -38.75,0.879 -56.55,5.312 -55.95,13.828 -92.14,51.055 -92.18,94.805 -0.08,84.433 52.34,98.906 94.47,110.527 l 27.91,8.301 c 2.85,0.977 4.24,1.855 4.55,2.109 2.62,4.551 1.23,25.02 0.43,37.207 -1.5,23.047 -3.4,51.661 4.59,80.664 13.4,48.282 60.43,63.653 107.58,66.036 39.9,2.031 79.8,-5.215 99.53,-9.61 210.41,-19.551 273.77,-245 300.86,-341.797 19.88,-71.093 15.1,-129.98 -13.87,-170.214"
         style="fill:#000000;fill-opacity:1;fill-rule:nonzero;stroke:none"
         id="path3352"
         inkscape:connector-curvature="0" /><path
         d="m 3201.73,1444.43 c -67.22,12.25 -115.13,13.44 -120.39,13.54 -22.07,0.37 -40.27,-17.19 -40.68,-39.26 l -1.89,-99.98 c -0.22,-10.62 3.82,-20.88 11.23,-28.52 5.82,-6.07 13.41,-10.11 21.62,-11.58 2.13,-0.41 4.29,-0.6 6.44,-0.64 3.93,-0.06 36.33,-0.67 82.37,-9.04 85.43,-15.55 204.21,-54.81 284.82,-153.46 65.66,-80.37 84.49,-200.334 56.05,-356.584 -2.01,-11.035 0.73,-22.402 7.5,-31.347 6.06,-7.969 14.91,-13.399 24.73,-15.176 1.11,-0.215 2.27,-0.371 3.4,-0.488 l 181.99,-17.09 c 20.63,-1.914 39.38,12.246 43.11,32.636 32.46,178.399 -17.97,364.899 -138.3,511.819 -123.6,150.88 -325.16,187.56 -422,205.17 l 0,0"
         style="fill:#000000;fill-opacity:1;fill-rule:nonzero;stroke:none"
         id="path3354"
         inkscape:connector-curvature="0" /><path
         d="m 3194.57,1405.1 c -63.87,11.64 -109.03,12.77 -113.95,12.85 l -1.85,-99.98 c 2.83,-0.02 253.84,-1.39 397.44,-177.19 77.17,-94.45 93.45,-229.921 64.45,-389.061 l 181.97,-17.09 c 34.51,189.551 -33.02,361.071 -129.88,479.281 -110.18,134.53 -286.62,170.89 -398.18,191.19 l 0,0"
         style="fill:#f6885e;fill-opacity:1;fill-rule:nonzero;stroke:none"
         id="path3356"
         inkscape:connector-curvature="0" /><path
         d="m 3639.74,807.266 c 0,0 -143.73,32.343 -160.47,-27.969 -16.77,-60.391 22.99,-127.734 -35.5,-147.266 -58.52,-19.492 -95.12,-14.707 -95.08,-80.82 0.08,-66.094 174,-106.816 249.37,35.801 0,0 35.14,24.922 88.85,7.812 53.73,-17.07 68.98,-122.09 68.98,-122.09 0,0 7.72,-151.601 80.26,-147.91 72.5,3.692 102.28,67.989 74.02,169.004 -28.26,100.977 -87.93,299.551 -270.43,313.438"
         style="fill:#f6885e;fill-opacity:1;fill-rule:nonzero;stroke:none"
         id="path3358"
         inkscape:connector-curvature="0" /><path
         d="m 112.285,415.703 3.36,-8.203 c 5.429,-13.359 55.664,-129.961 150.605,-115.898 29.063,4.257 52.266,18.632 67.129,41.484 22.402,34.414 24.394,85.605 5.898,152.129 -10.605,38.144 -59.55,135.82 -117.832,151.074 -21.718,5.723 -43.203,0.02 -58.711,-15.644 C 124.668,582.461 115.117,470.801 112.773,424.59 l -0.488,-8.887"
         style="fill:#000000;fill-opacity:1;fill-rule:nonzero;stroke:none"
         id="path3360"
         inkscape:connector-curvature="0" /><path
         d="m 152.695,422.539 c 0,0 41.133,-101.23 107.735,-91.406 66.562,9.844 54.258,93.086 40.312,143.359 -13.965,50.274 -78.301,149.395 -109.668,117.969 -31.347,-31.504 -38.379,-169.922 -38.379,-169.922"
         style="fill:#f4694d;fill-opacity:1;fill-rule:nonzero;stroke:none"
         id="path3362"
         inkscape:connector-curvature="0" /><path
         d="m 25.918,334.395 c 21.7578,-30.293 55.1953,-47.422 96.621,-49.551 l 0,0 c 81.895,-4.141 116.66,94.765 121.875,182.246 5.664,37.91 24.59,84.238 41.524,89.609 11.093,3.535 20.781,4.434 28.808,4.004 11.074,-0.586 17.481,-3.086 21.348,-4.922 42.48,-69.492 106.582,-101.66 167.148,-104.726 19.61,-0.996 38.75,0.879 56.543,5.312 55.957,13.828 92.149,51.055 92.188,94.805 0.078,84.433 -52.344,98.906 -94.473,110.527 L 529.59,670 c -2.852,0.977 -4.238,1.855 -4.551,2.109 -2.617,4.551 -1.23,25.02 -0.43,37.207 1.504,23.047 3.399,51.661 -4.589,80.664 -13.399,48.282 -60.43,63.653 -107.579,66.036 -39.902,2.031 -79.804,-5.215 -99.531,-9.61 C 102.5,826.855 39.1406,601.406 12.0508,504.609 -7.83203,433.516 -3.04688,374.629 25.918,334.395"
         style="fill:#000000;fill-opacity:1;fill-rule:nonzero;stroke:none"
         id="path3364"
         inkscape:connector-curvature="0" /><path
         d="m 758.984,1444.43 c 67.227,12.25 115.137,13.44 120.391,13.54 22.07,0.37 40.273,-17.19 40.684,-39.26 l 1.894,-99.98 c 0.215,-10.62 -3.828,-20.88 -11.23,-28.52 -5.821,-6.07 -13.418,-10.11 -21.621,-11.58 -2.129,-0.41 -4.297,-0.6 -6.446,-0.64 -3.926,-0.06 -36.328,-0.67 -82.363,-9.04 -85.43,-15.55 -204.219,-54.81 -284.824,-153.46 -65.664,-80.37 -84.492,-200.334 -56.055,-356.584 2.012,-11.035 -0.723,-22.402 -7.5,-31.347 -6.055,-7.969 -14.902,-13.399 -24.726,-15.176 -1.114,-0.215 -2.266,-0.371 -3.399,-0.488 l -181.992,-17.09 c -20.625,-1.914 -39.375,12.246 -43.106,32.636 -32.461,178.399 17.969,364.899 138.301,511.819 123.594,150.88 325.156,187.56 421.992,205.17 l 0,0"
         style="fill:#000000;fill-opacity:1;fill-rule:nonzero;stroke:none"
         id="path3366"
         inkscape:connector-curvature="0" /><path
         d="m 766.152,1405.1 c 63.868,11.64 109.024,12.77 113.946,12.85 l 1.855,-99.98 c -2.832,-0.02 -253.848,-1.39 -397.441,-177.19 -77.168,-94.45 -93.457,-229.921 -64.453,-389.061 L 238.086,734.629 C 203.574,924.18 271.113,1095.7 367.969,1213.91 478.145,1348.44 654.59,1384.8 766.152,1405.1 l 0,0"
         style="fill:#f6885e;fill-opacity:1;fill-rule:nonzero;stroke:none"
         id="path3368"
         inkscape:connector-curvature="0" /><path
         d="m 320.977,807.266 c 0,0 143.73,32.343 160.468,-27.969 16.778,-60.391 -22.988,-127.734 35.508,-147.266 58.516,-19.492 95.117,-14.707 95.078,-80.82 -0.078,-66.094 -174.004,-106.816 -249.375,35.801 0,0 -35.136,24.922 -88.847,7.812 -53.731,-17.07 -68.985,-122.09 -68.985,-122.09 0,0 -7.715,-151.601 -80.254,-147.91 -72.4997,3.692 -102.2848,67.989 -74.0231,169.004 28.2617,100.977 87.9301,299.551 270.4301,313.438"
         style="fill:#f6885e;fill-opacity:1;fill-rule:nonzero;stroke:none"
         id="path3370"
         inkscape:connector-curvature="0" /><path
         d="M 3245.02,93.6719 C 3245.02,41.9336 2678.8,0 1980.34,0 1281.9,0 715.691,41.9336 715.691,93.6719 c 0,51.7381 566.209,93.6721 1264.649,93.6721 698.46,0 1264.68,-41.934 1264.68,-93.6721"
         style="fill:#dbedf4;fill-opacity:1;fill-rule:nonzero;stroke:none"
         id="path3372"
         inkscape:connector-curvature="0" /><path
         d="m 2113.45,59.5703 c -25.5,0 -93.28,0 -114.61,52.3437 -9.66,23.672 -5.62,50.391 11.37,75.586 l 0,715.293 c 0,19.863 11.76,37.832 29.96,45.801 l 83.91,36.719 c 6.37,2.773 13.08,4.199 20.04,4.199 9.68,0 19.14,-2.793 27.26,-8.106 14.18,-9.238 22.66,-24.843 22.74,-41.738 l 1.99,-633.809 c 83.12,42.871 214.57,90.196 389.8,90.196 340.67,0 409.03,-208.711 415.71,-232.52 6.6,-23.574 2.58,-46.64 -11.29,-64.9608 -26.06,-34.3554 -76.76,-39.0039 -122.89,-39.0039 l -753.99,0"
         style="fill:#000000;fill-opacity:1;fill-rule:nonzero;stroke:none"
         id="path3374"
         inkscape:connector-curvature="0" /><path
         d="m 2060.21,902.793 0,-732.852 c 0,0 -61.6,-60.371 53.24,-60.371 0,0 701.18,0 753.99,0 52.81,0 95.15,7.852 86.01,40.469 -12.65,45.195 -88.79,196.016 -367.54,196.016 -278.71,0 -439.53,-129.414 -439.53,-129.414 l -2.26,722.871 -83.91,-36.719"
         style="fill:#f6885e;fill-opacity:1;fill-rule:nonzero;stroke:none"
         id="path3376"
         inkscape:connector-curvature="0" /><path
         d="m 2144.86,704.922 -0.74,234.59 -83.91,-36.719 0,-222.441 c 25.98,4.726 52.89,12.929 84.65,24.57"
         style="fill:#f4694d;fill-opacity:1;fill-rule:nonzero;stroke:none"
         id="path3378"
         inkscape:connector-curvature="0" /><path
         d="m 2948.26,164.922 c -23.75,-9.141 -53.09,-10.859 -80.82,-10.859 l -753.99,0 c -12.89,0 -37.38,0.273 -60.07,7.734 -12.15,-16.445 -28.44,-52.227 60.07,-52.227 0,0 701.18,0 753.99,0 52.81,0 95.15,7.852 86.01,40.469 -1.13,4.141 -2.85,9.18 -5.19,14.883"
         style="fill:#f4694d;fill-opacity:1;fill-rule:nonzero;stroke:none"
         id="path3380"
         inkscape:connector-curvature="0" /><path
         d="m 1093.27,59.5703 c -46.13,0 -96.813,4.6485 -122.872,39.0039 -13.886,18.3208 -17.89,41.3868 -11.289,64.9608 6.684,23.809 75.041,232.52 415.691,232.52 175.23,0 306.7,-47.325 389.82,-90.196 l 1.99,633.809 c 0.06,16.895 8.53,32.5 22.69,41.738 8.17,5.313 17.6,8.106 27.31,8.106 6.94,0 13.67,-1.426 20.04,-4.199 l 83.89,-36.719 c 18.2,-7.969 29.96,-25.938 29.96,-45.801 l 0,-715.293 c 17.01,-25.195 21.05,-51.914 11.38,-75.586 -21.34,-52.3437 -89.12,-52.3437 -114.62,-52.3437 l -753.99,0"
         style="fill:#000000;fill-opacity:1;fill-rule:nonzero;stroke:none"
         id="path3382"
         inkscape:connector-curvature="0" /><path
         d="m 1900.5,902.793 0,-732.852 c 0,0 61.6,-60.371 -53.24,-60.371 0,0 -701.17,0 -753.99,0 -52.81,0 -95.153,7.852 -86.01,40.469 12.67,45.195 88.8,196.016 367.54,196.016 278.72,0 439.53,-129.414 439.53,-129.414 l 2.28,722.871 83.89,-36.719"
         style="fill:#f6885e;fill-opacity:1;fill-rule:nonzero;stroke:none"
         id="path3384"
         inkscape:connector-curvature="0" /><path
         d="m 1815.87,704.922 c 31.74,-11.641 58.67,-19.844 84.63,-24.57 l 0,222.441 -83.89,36.719 -0.74,-234.59"
         style="fill:#f4694d;fill-opacity:1;fill-rule:nonzero;stroke:none"
         id="path3386"
         inkscape:connector-curvature="0" /><path
         d="m 1847.26,154.063 -753.99,0 c -27.72,0 -57.07,1.718 -80.82,10.859 -2.32,-5.703 -4.04,-10.742 -5.19,-14.883 -9.143,-32.617 33.2,-40.469 86.01,-40.469 52.82,0 753.99,0 753.99,0 88.53,0 72.22,35.782 60.09,52.227 -22.71,-7.461 -47.18,-7.734 -60.09,-7.734"
         style="fill:#f4694d;fill-opacity:1;fill-rule:nonzero;stroke:none"
         id="path3388"
         inkscape:connector-curvature="0" /><path
         d="m 1966.02,3762.21 c -14.96,0 -28.82,8.39 -35.68,21.93 -0.89,1.68 -32.42,59.66 -128.23,117.11 -90.76,54.41 -258.86,119.28 -544.25,119.28 -8.59,0 -32.52,-0.22 -32.52,-0.22 -116.58,-0.01 -165.54,42.4 -186.07,77.97 -24.56,42.54 -21.06,95.47 9.88,149.06 60.05,104.01 223.1,208.97 451.96,208.97 69.52,0 141,-10.02 212.48,-29.77 332.21,-91.78 335.8,-454.84 291.27,-633.98 -4.06,-16.28 -17.83,-28.31 -34.51,-30.12 -1.46,-0.15 -2.9,-0.23 -4.33,-0.23"
         style="fill:#000000;fill-opacity:1;fill-rule:nonzero;stroke:none"
         id="path3390"
         inkscape:connector-curvature="0" /><path
         d="m 1966.04,3802.21 c 0,0 -131.7,266.16 -734.71,258.14 -382.49,-5.08 -64.19,475.67 471.61,327.64 382.43,-105.67 263.1,-585.78 263.1,-585.78"
         style="fill:#5aa928;fill-opacity:1;fill-rule:nonzero;stroke:none"
         id="path3392"
         inkscape:connector-curvature="0" /><path
         d="m 1658.25,4007.28 c 243.46,-75.62 307.79,-205.07 307.79,-205.07 0,0 53.64,216.68 -27,390.95 -22.38,-156.16 -167.36,-186.77 -280.79,-185.88"
         style="fill:#46841e;fill-opacity:1;fill-rule:nonzero;stroke:none"
         id="path3394"
         inkscape:connector-curvature="0" /><path
         d="m 1967.23,3794.57 c -1.01,5 -106.05,499.48 -574.66,457.71 0,0 89.29,46.07 233.81,-7.18 287.04,-105.77 359.62,-442.39 360.46,-446.58 l -19.61,-3.95"
         style="fill:#000000;fill-opacity:1;fill-rule:nonzero;stroke:none"
         id="path3396"
         inkscape:connector-curvature="0" /><path
         d="m 2000.48,3744.14 c -5.52,0 -11.05,1.15 -16.22,3.45 l -31.45,13.96 c -15.25,6.77 -24.7,22.29 -23.7,38.94 0.86,14.37 24.08,353.55 289.58,478 5.35,2.52 11.17,3.78 16.97,3.78 5.14,0 10.29,-1 15.18,-2.99 10.35,-4.24 18.43,-12.63 22.34,-23.12 l 42.81,-115.59 c 6.78,-18.31 -0.64,-38.84 -17.58,-48.58 -1.79,-1.04 -186.87,-110.27 -260.15,-320.99 -3.67,-10.56 -11.6,-19.11 -21.88,-23.56 -5.08,-2.19 -10.47,-3.3 -15.9,-3.3"
         style="fill:#000000;fill-opacity:1;fill-rule:nonzero;stroke:none"
         id="path3398"
         inkscape:connector-curvature="0" /><path
         d="m 2000.48,3784.14 c 79.42,228.36 278.01,342.53 278.01,342.53 l -42.83,115.6 c -247.01,-115.79 -266.62,-444.16 -266.62,-444.16 l 31.44,-13.97"
         style="fill:#ad5133;fill-opacity:1;fill-rule:nonzero;stroke:none"
         id="path3400"
         inkscape:connector-curvature="0" /><path
         d="m 1952.99,730.156 c -68.23,0 -124.49,23.008 -236.58,68.828 -85.05,34.766 -201.53,82.383 -384.7,146.563 C 843.223,1116.64 473.348,1494.65 316.934,1982.7 c -153.711,479.59 -79.969,984.56 202.332,1385.43 242.589,344.47 604.624,526.55 1046.984,526.55 167.59,0 315.79,-26.5 414.11,-49.93 98.33,23.43 246.51,49.93 414.11,49.93 308.48,0 740.51,-91.36 1046.99,-526.55 C 3723.77,2967.26 3797.5,2462.29 3643.79,1982.7 3487.36,1494.65 3117.5,1116.64 2629,945.547 2445.84,881.367 2329.35,833.75 2244.31,798.984 2132.22,753.164 2075.95,730.156 2007.73,730.156 l -54.74,0"
         style="fill:#000000;fill-opacity:1;fill-rule:nonzero;stroke:none"
         id="path3402"
         inkscape:connector-curvature="0" /><path
         d="m 3400.56,3339.34 c -430.49,611.3 -1116.21,528.68 -1420.2,453.96 -304,74.72 -989.715,157.34 -1420.215,-453.96 -566.18797,-804 -216.883,-1994.61 788.085,-2346.606 424.52,-148.691 501.5,-212.578 604.76,-212.578 l 54.74,0 c 103.26,0 180.25,63.887 604.75,212.578 1004.98,351.996 1354.29,1542.606 788.08,2346.606"
         style="fill:#f6885e;fill-opacity:1;fill-rule:nonzero;stroke:none"
         id="path3404"
         inkscape:connector-curvature="0" /><path
         d="m 519.266,3265.27 c 242.589,344.47 604.624,526.55 1046.984,526.55 167.59,0 538.53,-25.54 636.85,-48.98 -14.06,25.58 76.51,50.27 191.37,48.98 308.44,-3.46 740.51,-91.36 1046.99,-526.55 22.4,-31.83 43.36,-64.38 63.13,-97.46 -30.43,58.73 -64.96,116.08 -104.03,171.53 -430.49,611.3 -1116.21,528.68 -1420.2,453.96 -304,74.72 -989.715,157.34 -1420.215,-453.96 -39.043,-55.45 -73.582,-112.8 -104.004,-171.53 19.765,33.08 40.714,65.63 63.125,97.46"
         style="fill:#fab788;fill-opacity:1;fill-rule:nonzero;stroke:none"
         id="path3406"
         inkscape:connector-curvature="0" /><path
         d="M 1223.56,2088.28 C 878.445,2342.24 554.852,2461.27 289.715,2512.48 275.234,1874.96 656.316,1235.08 1348.23,992.734 1772.75,844.043 1849.73,780.156 1952.99,780.156 l 54.74,0 c 103.26,0 180.25,63.887 604.75,212.578 406.05,142.206 704.98,421.346 879.8,756.546 -970.7,-622.27 -1491.09,-233.24 -2268.72,339"
         style="fill:#f4694d;fill-opacity:1;fill-rule:nonzero;stroke:none"
         id="path3408"
         inkscape:connector-curvature="0" /><path
         d="m 1980.36,3793.3 c 0,0 438.82,-68.63 609.13,-436.13 0,0 -75.69,392.02 -582.13,464.06 l -27,-27.93"
         style="fill:#000000;fill-opacity:1;fill-rule:nonzero;stroke:none"
         id="path3410"
         inkscape:connector-curvature="0" /><path
         d="m 2088.96,793.32 c 0,0 271.95,80.938 343.67,372.27 0,0 2.01,-267.035 -288.2,-381.82 l -55.47,9.55"
         style="fill:#000000;fill-opacity:1;fill-rule:nonzero;stroke:none"
         id="path3412"
         inkscape:connector-curvature="0" /><path
         d="m 2228.14,2670.33 c -123.12,0 -223.28,131.41 -223.28,292.89 0,161.49 100.16,292.85 223.28,292.85 123.13,0 223.28,-131.36 223.28,-292.85 0,-161.48 -100.15,-292.89 -223.28,-292.89 l 0,0"
         style="fill:#000000;fill-opacity:1;fill-rule:nonzero;stroke:none"
         id="path3414"
         inkscape:connector-curvature="0" /><path
         d="m 2034.94,2970.53 c 0.74,-140.39 87.11,-254.38 193.2,-254.38 87.89,0 162.11,78.21 185.51,184.81 l -378.71,69.57"
         style="fill:#ffffff;fill-opacity:1;fill-rule:nonzero;stroke:none"
         id="path3416"
         inkscape:connector-curvature="0" /><path
         d="m 2417.48,2920.61 c 2.57,16.68 3.94,33.98 3.94,51.68 0,141.25 -86.72,256.13 -193.28,256.13 -101.84,0 -185.35,-105.04 -192.58,-237.66 l 381.92,-70.15"
         style="fill:#f4694d;fill-opacity:1;fill-rule:nonzero;stroke:none"
         id="path3418"
         inkscape:connector-curvature="0" /><path
         d="m 2228.14,3177.17 c 76.49,0 144.06,-50.74 184.3,-127.85 -24.73,103.71 -97.97,179.1 -184.3,179.1 -86.33,0 -159.57,-75.39 -184.3,-179.1 40.24,77.11 107.82,127.85 184.3,127.85"
         style="fill:#fab788;fill-opacity:1;fill-rule:nonzero;stroke:none"
         id="path3420"
         inkscape:connector-curvature="0" /><path
         d="m 1763.54,2672.52 c -148.79,0 -269.85,151.29 -269.85,337.23 0,185.93 121.06,337.18 269.85,337.18 148.78,0 269.84,-151.25 269.84,-337.18 0,-185.94 -121.06,-337.23 -269.84,-337.23 l 0,0"
         style="fill:#000000;fill-opacity:1;fill-rule:nonzero;stroke:none"
         id="path3422"
         inkscape:connector-curvature="0" /><path
         d="m 2402.79,2863.07 c 4.34,12.14 7.97,24.8 10.86,37.89 l -378.71,69.57 c 0.08,-13.75 1.17,-27.19 2.85,-40.39 l 365,-67.07"
         style="fill:#cde0e7;fill-opacity:1;fill-rule:nonzero;stroke:none"
         id="path3424"
         inkscape:connector-curvature="0" /><path
         d="m 2002.36,2992.25 c 0.55,8.39 1.02,16.83 1.02,25.39 0,165.04 -107.58,299.29 -239.84,299.29 -132.27,0 -239.85,-134.25 -239.85,-299.29 0,-38.95 6.17,-76.06 17.07,-110.2 l 461.6,84.81"
         style="fill:#f4694d;fill-opacity:1;fill-rule:nonzero;stroke:none"
         id="path3426"
         inkscape:connector-curvature="0" /><path
         d="m 1547.56,2888.34 c 38.75,-100.39 120.86,-170.04 215.98,-170.04 119.68,0 218.82,110.04 236.71,253.2 l -452.69,-83.16"
         style="fill:#ffffff;fill-opacity:1;fill-rule:nonzero;stroke:none"
         id="path3428"
         inkscape:connector-curvature="0" /><path
         d="m 1992.4,2930.21 c 3.28,13.44 6.09,27.15 7.85,41.29 l -452.69,-83.16 c 4.96,-12.81 10.58,-25.08 16.87,-36.76 l 427.97,78.63"
         style="fill:#cde0e7;fill-opacity:1;fill-rule:nonzero;stroke:none"
         id="path3430"
         inkscape:connector-curvature="0" /><path
         d="m 1763.54,3259.9 c 98.24,0 184.17,-66.17 231.36,-164.53 -27.54,127.42 -120.7,221.56 -231.36,221.56 -110.67,0 -203.83,-94.14 -231.37,-221.56 47.19,98.36 133.12,164.53 231.37,164.53"
         style="fill:#fab788;fill-opacity:1;fill-rule:nonzero;stroke:none"
         id="path3432"
         inkscape:connector-curvature="0" /><path
         d="m 1908.5,2933.93 c 0,-17 -13.79,-30.79 -30.79,-30.79 -16.99,0 -30.74,13.79 -30.74,30.79 0,16.99 13.75,30.74 30.74,30.74 17,0 30.79,-13.75 30.79,-30.74"
         style="fill:#000000;fill-opacity:1;fill-rule:nonzero;stroke:none"
         id="path3434"
         inkscape:connector-curvature="0" /><path
         d="m 2183.34,2933.93 c 0,-17 -13.75,-30.79 -30.75,-30.79 -16.99,0 -30.78,13.79 -30.78,30.79 0,16.99 13.79,30.74 30.78,30.74 17,0 30.75,-13.75 30.75,-30.74"
         style="fill:#000000;fill-opacity:1;fill-rule:nonzero;stroke:none"
         id="path3436"
         inkscape:connector-curvature="0" /><path
         d="m 1698.96,3384.63 c 0,0 70.79,61.56 227.7,49.26 0,0 12.3,110.74 -73.83,110.74 -86.17,0 -156.95,-76.92 -153.87,-160"
         style="fill:#000000;fill-opacity:1;fill-rule:nonzero;stroke:none"
         id="path3438"
         inkscape:connector-curvature="0" /><path
         d="m 2160.52,3369.28 c 0,0 64.61,12.3 153.83,-21.57 0,0 27.7,116.92 -80,126.18 -107.69,9.22 -73.83,-104.61 -73.83,-104.61"
         style="fill:#000000;fill-opacity:1;fill-rule:nonzero;stroke:none"
         id="path3440"
         inkscape:connector-curvature="0" /><path
         d="m 1314.06,2265.06 c 0,0 11.02,-61.56 90.2,-74.77 0,0 -107.81,-19.8 -90.2,74.77"
         style="fill:#000000;fill-opacity:1;fill-rule:nonzero;stroke:none"
         id="path3442"
         inkscape:connector-curvature="0" /><path
         d="m 2645.6,2266.99 c 0,0 -11.01,-61.56 -90.19,-74.76 0,0 107.81,-19.81 90.19,74.76"
         style="fill:#000000;fill-opacity:1;fill-rule:nonzero;stroke:none"
         id="path3444"
         inkscape:connector-curvature="0" /><path
         d="m 2602.71,2206.39 c -1.29,3.02 -134.55,302.54 -618.78,302.54 l -7.11,0 c -484.22,0 -617.5,-299.52 -618.79,-302.54 l -1.96,-4.57 -27.63,11.62 1.93,4.61 c 1.35,3.2 140.55,320.88 646.45,320.88 l 7.11,0 c 505.91,0 645.09,-317.68 646.44,-320.88 l 1.93,-4.61 -27.64,-11.64 -1.95,4.59"
         style="fill:#000000;fill-opacity:1;fill-rule:nonzero;stroke:none"
         id="path3446"
         inkscape:connector-curvature="0" /></g></g></svg>